/* XPM */
static char *_510e184d5fb4ad5c9743d73bcc3e835Fjm32rdyFtynw3n5[] = {
/* columns rows colors chars-per-pixel */
"64 64 14 1 ",
"  c #47704C",
". c black",
"X c black",
"o c black",
"O c black",
"+ c black",
"@ c black",
"# c black",
"$ c black",
"% c black",
"& c black",
"* c black",
"= c None",
"- c black",
/* pixels */
"o.X                 X.o                  o.X                 X.o",
"@=OOOOOOOOOOOOOOOOOOO=@OOOOOOOOOOOOOOOOOO@=OOOOOOOOOOOOOOOOOOO=@",
"#-%%%%%%%%%%%%%%%%%%%-#$%%%%%%%%%%%%%%%%%.-%%%%%%%%%%%%%%%%%%%-#",
"*.X                  .*                  *.                  X.*",
"o.X                 X.o                  o.X                 X.o",
"o.X                 X.o                  o.X                 X.o",
"o.X                 X.o                  o.X                 X.o",
"o.X                 X.o                  o.X                 X.o",
"o.X                 X.o                  o.X                 X.o",
"o.X                 X.o                  o.X                 X.o",
"o.X                 X.o                  o.X                 X.o",
"o.X                 X.o                  o.X                 X.o",
"o.X                 X.o                  o.X                 X.o",
"o.X                 X.o                  o.X                 X.o",
"o.X                 X.o                  o.X                 X.o",
"o.X                 X.o                  o.X                 X.o",
"o.X                 X.o                  o.X                 X.o",
"o.X                 X.o                  o.X                 X.o",
"o.X                 X.o                  o.X                 X.o",
"o.X                 X.o                  o.X                 X.o",
"*.X                  .*                  *.                  X.*",
"%@+++++++++++++++++++@%++++++++++++++++++%@+++++++++++++++++++@%",
"-=###################=-##################-=###################=-",
"$#&&&&&&&&&&&&&&&&&&&#$&&&&&&&&&&&&&&&&&&$#&&&&&&&&&&&&&&&&&&&#$",
"o.X                 X.o                  o.X                 X.o",
"o.X                 X.o                  o.X                 X.o",
"o.X                 X.o                  o.X                 X.o",
"o.X                 X.o                  o.X                 X.o",
"o.X                 X.o                  o.X                 X.o",
"o.X                 X.o                  o.X                 X.o",
"o.X                 X.o                  o.X                 X.o",
"o.X                 X.o                  o.X                 X.o",
"o.X                 X.o                  o.X                 X.o",
"o.X                 X.o                  o.X                 X.o",
"o.X                 X.o                  o.X                 X.o",
"o.X                 X.o                  o.X                 X.o",
"o.X                 X.o                  o.X                 X.o",
"o.X                 X.o                  o.X                 X.o",
"o.X                 X.o                  o.X                 X.o",
"o.X                 X.o                  o.X                 X.o",
"o.X                 X.o                  o.X                 X.o",
"o.X                 X.o                  o.X                 X.o",
"@=.OOOOOOOOOOOOOOOOOO=@OOOOOOOOOOOOOOOOOO@=OOOOOOOOOOOOOOOOOOO=@",
".-%$$$$$$$$$$$$$$$$$%-.$$$$$$$$$$$$$$$$$$.-%$$$$$$$$$$$$$$$$$%-.",
"*.X                  .*                  *.                  X.*",
"o.X                 X.o                  o.X                 X.o",
"o.X                 X.o                  o.X                 X.o",
"o.X                 X.o                  o.X                 X.o",
"o.X                 X.o                  o.X                 X.o",
"o.X                 X.o                  o.X                 X.o",
"o.X                 X.o                  o.X                 X.o",
"o.X                 X.o                  o.X                 X.o",
"o.X                 X.o                  o.X                 X.o",
"o.X                 X.o                  o.X                 X.o",
"o.X                 X.o                  o.X                 X.o",
"o.X                 X.o                  o.X                 X.o",
"o.X                 X.o                  o.X                 X.o",
"o.X                 X.o                  o.X                 X.o",
"o.X                 X.o                  o.X                 X.o",
"o.X                 X.o                  o.X                 X.o",
"o.X                 X.o                  o.X                 X.o",
"*.X                  .*                  *.                  X.*",
"O@*++++++++++++++++++@O++++++++++++++++++O@++++++++++++++++++*@O",
"-=@@@@@@@@@@@@@@@@@@@=-@@@@@@@@@@@@@@@@@@-=@@@@@@@@@@@@@@@@@@@=-"
};
