/* XPM */
static char *_1aa3691a5a2430cca41949fecf3dee6jLPmbRAfBgsJiKOO[] = {
/* columns rows colors chars-per-pixel */
"64 64 83 1 ",
"  c #47704C",
". c #E0E21D",
"X c None",
"o c #E9EB24",
"O c #DFE11E",
"+ c #EEEDB6",
"@ c #E3E51F",
"# c #F6F5ED",
"$ c #E7E921",
"% c #E4E71E",
"& c #D5D617",
"* c #F9FAAD",
"= c #EDF029",
"- c #F6F761",
"; c #E5E820",
": c #EBEE27",
"> c #E3E51D",
", c #E1E31D",
"< c #E4E620",
"1 c #ECEE28",
"2 c #F9FA9B",
"3 c #F0F17A",
"4 c #EBEE27",
"5 c #E7E921",
"6 c #E9EC24",
"7 c #F9FA94",
"8 c #E9EC24",
"9 c #E6E920",
"0 c #ECEE2A",
"q c #F9FAA5",
"w c #F2F430",
"e c #E4E528",
"r c #EEF035",
"t c #F7F873",
"y c #F4F648",
"u c #EEF029",
"i c #E5E81F",
"p c #E1E41C",
"a c #F3F43D",
"s c #F3F433",
"d c #EFF22C",
"f c #F8F982",
"g c #F7F86F",
"h c #F8F98E",
"j c #F5F652",
"k c #F6F761",
"l c #F6F764",
"z c #E9EB24",
"x c #E3E51E",
"c c #E6E822",
"v c #F2F330",
"b c #F0F22E",
"n c #DBDC19",
"m c #ECEE27",
"M c #F4F551",
"N c #F4F558",
"B c #F7F873",
"V c #FAFAAE",
"C c #F9FAB6",
"Z c #F5F64C",
"A c #F9FAA3",
"S c #F5F664",
"D c #F5F75D",
"F c #F7F97E",
"G c #F2F336",
"H c #E7E922",
"J c #E4E71F",
"K c #F7F87D",
"L c #F6F76B",
"P c #F6F672",
"I c #F5F65E",
"U c #F5F674",
"Y c #F3F32A",
"T c #F3F531",
"R c #F3F530",
"E c #F1F32D",
"W c #EFF12B",
"Q c #F3F532",
"! c #F3F537",
"~ c #F3F534",
"^ c #F5F751",
"/ c #F4F646",
"( c #F4F640",
/* pixels */
"+#                     *A27ftg----lkLBPU3                    #+&",
"#                   *V7Fl^/X!~QQQQ~!X(yZjIS3                  #+",
"#                +q2F-/!RRRRTTTTTTTTRRT~!(yjre                 #",
"#               q7t^!RRTTTTTTTTTTTTTTTTTTRT!XaMO                ",
"#             *2t^~RTTTTTTTTTTTTTTTTTTTTTTTTT!XaN&              ",
"#            Vf^!RTTTTTTTTTTTTTTTTTTTTTTTTTTTRT~sG.             ",
"           32g(RTTTTTTTTTTTTTTTTTTTTTTTTTTTTTTTT~~a<            ",
"         #*7-~RTTTTTTTTTTTTTTTTTTTTTTTTTTTTTTTTTTTQvr+          ",
"         Ch^TTTTTTTTTTTTTTTTTTTTTTTTTTTTTTTTTTTTTTTQs0&         ",
"        Ch^RTTTTTTTTTTTTTTTTTTTTTTTTTTTTTTTTTTTTTTTTTw0&        ",
"       *h^RTTTTTTTTTTTTTTTTTTTTTTTTTTTTTTTTTTTTTTTTTTTw;        ",
"     #37^RTTTTTTTTTTTTTTTTTTTTTTTTTTTTTTTTTTTTTTTTTTTTQdc       ",
"     #2-TTTTTTTTTTTTTTTTTTTTTTTTTTTTTTTTTTTTTTTTTTTTTTTTb@      ",
"    #Ag~TTTTTTTTTTTTTTTTTTTTTTTTTTTTTTTTTTTTTTTTTTTTTTTTR1O     ",
"    *fXRTTTTTTTTTTTTTTTTTTTTTTTTTTTTTTTTTTTTTTTTTTTTTTTTTW0     ",
"   #2^RTTTTTTTTTTTTTTTTTTTTTTTTTTTTTTTTTTTTTTTTTTTTTTTTTTT:@    ",
"   qt~TTTTTTTTTTTTTTTTTTTTTTTTTTTTTTTTTTTTTTTTTTTTTTTTTTTTE$&   ",
"  +K/RTTTTTTTTTTTTTTTTTTTTTTTTTTTTTTTTTTTTTTTTTTTTTTTTTTTTTd<   ",
"  qlQTTTTTTTTTTTTTTTTTTTTTTTTTTTTTTTTTTTTTTTTTTTTTTTTTTTTTTE$&  ",
"  B/RTTTTTTTTTTTTTTTTTTTTTTTTTTTTTTTTTTTTTTTTTTTTTTTTTTTTTTTm@  ",
" *k!TTTTTTTTTTTTTTTTTTTTTTTTTTTTTTTTTTTTTTTTTTTTTTTTTTTTTTTTEi  ",
" N^RTTTTTTTTTTTTTTTTTTTTTTTTTTTTTTTTTTTTTTTTTTTTTTTTTTTTTTTTRoO ",
" DXRTTTTTTTTTTTTTTTTTTTTTTTTTTTTTTTTTTTTTTTTTTTTTTTTTTTTTTTTT=p ",
"*k~TTTTTTTTTTTTTTTTTTTTTTTTTTTTTTTTTTTTTTTTTTTTTTTTTTTTTTTTTTE% ",
"SyTTTTTTTTTTTTTTTTTTTTTTTTTTTTTTTTTTTTTTTTTTTTTTTTTTTTTTTTTTTR5&",
"M(RTTTTTTTTTTTTTTTTTTTTTTTTTTTTTTTTTTTTTTTTTTTTTTTTTTTTTTTTTTT8.",
"D!TTTTTTTTTTTTTTTTTTTTTTTTTTTTTTTTTTTTTTTTTTTTTTTTTTTTTTTTTTTT4p",
"j!TTTTTTTTTTTTTTTTTTTTTTTTTTTTTTTTTTTTTTTTTTTTTTTTTTTTTTTTTTTQu>",
"ZQTTTTTTTTTTTTTTTTTTTTTTTTTTTTTTTTTTTTTTTTTTTTTTTTTTTTTTTTTTTTW%",
"yQTTTTTTTTTTTTTTTTTTTTTTTTTTTTTTTTTTTTTTTTTTTTTTTTTTTTTTTTTTTTEz",
"XQTTTTTTTTTTTTTTTTTTTTTTTTTTTTTTTTTTTTTTTTTTTTTTTTTTTTTTTTTTTTE9",
"!TTTTTTTTTTTTTTTTTTTTTTTTTTTTTTTTTTTTTTTTTTTTTTTTTTTTTTTTTTTTTE$",
"!TTTTTTTTTTTTTTTTTTTTTTTTTTTTTTTTTTTTTTTTTTTTTTTTTTTTTTTTTTTTTE$",
"wTTTTTTTTTTTTTTTTTTTTTTTTTTTTTTTTTTTTTTTTTTTTTTTTTTTTTTTTTTTTTE9",
"sTTTTTTTTTTTTTTTTTTTTTTTTTTTTTTTTTTTTTTTTTTTTTTTTTTTTTTTTTTTTTEi",
"bTTTTTTTTTTTTTTTTTTTTTTTTTTTTTTTTTTTTTTTTTTTTTTTTTTTTTTTTTTTTTW;",
"1TTTTTTTTTTTTTTTTTTTTTTTTTTTTTTTTTTTTTTTTTTTTTTTTTTTTTTTTTTTTT=x",
"zTTTTTTTTTTTTTTTTTTTTTTTTTTTTTTTTTTTTTTTTTTTTTTTTTTTTTTTTTTTTT:,",
"rwTTTTTTTTTTTTTTTTTTTTTTTTTTTTTTTTTTTTTTTTTTTTTTTTTTTTTTTTTTTRoO",
",vTTTTTTTTTTTTTTTTTTTTTTTTTTTTTTTTTTTTTTTTTTTTTTTTTTTTTTTTTTTE9 ",
"31TTTTTTTTTTTTTTTTTTTTTTTTTTTTTTTTTTTTTTTTTTTTTTTTTTTTTTTTTTTW> ",
" 0RTTTTTTTTTTTTTTTTTTTTTTTTTTTTTTTTTTTTTTTTTTTTTTTTTTTTTTTTTT:, ",
" @dTTTTTTTTTTTTTTTTTTTTTTTTTTTTTTTTTTTTTTTTTTTTTTTTTTTTTTTTTE5& ",
" 31RTTTTTTTTTTTTTTTTTTTTTTTTTTTTTTTTTTTTTTTTTTTTTTTTTTTTTTTTu>  ",
"  ruTTTTTTTTTTTTTTTTTTTTTTTTTTTTTTTTTTTTTTTTTTTTTTTTTTTTTTTR6e  ",
"  e6RTTTTTTTTTTTTTTTTTTTTTTTTTTTTTTTTTTTTTTTTTTTTTTTTTTTTTTW%   ",
"   ;WTTTTTTTTTTTTTTTTTTTTTTTTTTTTTTTTTTTTTTTTTTTTTTTTTTTTTR8.   ",
"   OoRTTTTTTTTTTTTTTTTTTTTTTTTTTTTTTTTTTTTTTTTTTTTTTTTTTTTu;    ",
"    x=TTTTTTTTTTTTTTTTTTTTTTTTTTTTTTTTTTTTTTTTTTTTTTTTTTTE1O    ",
"    &9ETTTTTTTTTTTTTTTTTTTTTTTTTTTTTTTTTTTTTTTTTTTTTTTTTR4<     ",
"     .oRTTTTTTTTTTTTTTTTTTTTTTTTTTTTTTTTTTTTTTTTTTTTTTTTu%#     ",
"      <:RTTTTTTTTTTTTTTTTTTTTTTTTTTTTTTTTTTTTTTTTTTTTTTW5n      ",
"       >=TTTTTTTTTTTTTTTTTTTTTTTTTTTTTTTTTTTTTTTTTTTTTEo.       ",
"       +J=TTTTTTTTTTTTTTTTTTTTTTTTTTTTTTTTTTTTTTTTTTTE6,        ",
"        &%=RTTTTTTTTTTTTTTTTTTTTTTTTTTTTTTTTTTTTTTTTE6@         ",
"         &;4RTTTTTTTTTTTTTTTTTTTTTTTTTTTTTTTTTTTTTTWo,          ",
"           c8ETTTTTTTTTTTTTTTTTTTTTTTTTTTTTTTTTTTRu5.           ",
"            @HWRTTTTTTTTTTTTTTTTTTTTTTTTTTTTTTTTE4%n            ",
"             O%:ETTTTTTTTTTTTTTTTTTTTTTTTTTTTTRu1<#             ",
"               @$4ETTTTTTTTTTTTTTTTTTTTTTTTTRW8;O               ",
"                &<$mWRTTTTTTTTTTTTTTTTTTTTEu6%.                 ",
"                  &@io=WRTTTTTTTTTTTTTREu:5>e                   ",
"                     Op%584uWEEEEEWu=:o9>,&                    #",
"                        &.p>%z9$$9i;x,O                    #####"
};
