/* XPM */
static char *_aaf6de1505448e4e277b3a45b7669fcHHm1aUgcasAXeiDy[] = {
/* columns rows colors chars-per-pixel */
"64 64 9 1 ",
"  c #47704C",
". c black",
"X c black",
"o c None",
"O c black",
"+ c #DC4436",
"@ c #320F0C",
"# c #B9392E",
"$ c #BA3A2E",
/* pixels */
"                              .oo.                              ",
"                             .O@@O.                             ",
"                            .X@$$@X.                            ",
"                           .X@#++#@X.                           ",
"                          .X@#++++#@X.                          ",
"                         .X@#++++++#@X.                         ",
"                        .X@#++++++++#@X.                        ",
"                       .X@#++++++++++#@X.                       ",
"                      .X@#++++++++++++#@X.                      ",
"                     .X@#++++++++++++++#@X.                     ",
"                    .X@#++++++++++++++++#@X.                    ",
"                   .X@#++++++++++++++++++#@X.                   ",
"                  .X@#++++++++++++++++++++#@X.                  ",
"                 .X@#++++++++++++++++++++++#@X.                 ",
"                .X@#++++++++++++++++++++++++#@X.                ",
"               .X@#++++++++++++++++++++++++++#@X.               ",
"              .X@#++++++++++++++++++++++++++++#@X.              ",
"             .X@#++++++++++++++++++++++++++++++#@X.             ",
"            .X@#++++++++++++++++++++++++++++++++#@X.            ",
"           .X@#++++++++++++++++++++++++++++++++++#@X.           ",
"          .X@#++++++++++++++++++++++++++++++++++++#@X.          ",
"         .X@#++++++++++++++++++++++++++++++++++++++#@X.         ",
"        .X@#++++++++++++++++++++++++++++++++++++++++#@X.        ",
"       .X@#++++++++++++++++++++++++++++++++++++++++++#@X.       ",
"      .X@#++++++++++++++++++++++++++++++++++++++++++++#@X.      ",
"     .X@#++++++++++++++++++++++++++++++++++++++++++++++#@X.     ",
"    .X@#++++++++++++++++++++++++++++++++++++++++++++++++#@X.    ",
"   .X@#++++++++++++++++++++++++++++++++++++++++++++++++++#@X.   ",
"  .X@#++++++++++++++++++++++++++++++++++++++++++++++++++++#@X.  ",
" .X@#++++++++++++++++++++++++++++++++++++++++++++++++++++++#@X. ",
".O@#++++++++++++++++++++++++++++++++++++++++++++++++++++++++#@O.",
"o@$++++++++++++++++++++++++++++++++++++++++++++++++++++++++++$@o",
"o@$++++++++++++++++++++++++++++++++++++++++++++++++++++++++++$@o",
".O@#++++++++++++++++++++++++++++++++++++++++++++++++++++++++#@O.",
" .X@#++++++++++++++++++++++++++++++++++++++++++++++++++++++#@X. ",
"  .X@#++++++++++++++++++++++++++++++++++++++++++++++++++++#@X.  ",
"   .X@#++++++++++++++++++++++++++++++++++++++++++++++++++#@X.   ",
"    .X@#++++++++++++++++++++++++++++++++++++++++++++++++#@X.    ",
"     .X@#++++++++++++++++++++++++++++++++++++++++++++++#@X.     ",
"      .X@#++++++++++++++++++++++++++++++++++++++++++++#@X.      ",
"       .X@#++++++++++++++++++++++++++++++++++++++++++#@X.       ",
"        .X@#++++++++++++++++++++++++++++++++++++++++#@X.        ",
"         .X@#++++++++++++++++++++++++++++++++++++++#@X.         ",
"          .X@#++++++++++++++++++++++++++++++++++++#@X.          ",
"           .X@#++++++++++++++++++++++++++++++++++#@X.           ",
"            .X@#++++++++++++++++++++++++++++++++#@X.            ",
"             .X@#++++++++++++++++++++++++++++++#@X.             ",
"              .X@#++++++++++++++++++++++++++++#@X.              ",
"               .X@#++++++++++++++++++++++++++#@X.               ",
"                .X@#++++++++++++++++++++++++#@X.                ",
"                 .X@#++++++++++++++++++++++#@X.                 ",
"                  .X@#++++++++++++++++++++#@X.                  ",
"                   .X@#++++++++++++++++++#@X.                   ",
"                    .X@#++++++++++++++++#@X.                    ",
"                     .X@#++++++++++++++#@X.                     ",
"                      .X@#++++++++++++#@X.                      ",
"                       .X@#++++++++++#@X.                       ",
"                        .X@#++++++++#@X.                        ",
"                         .X@#++++++#@X.                         ",
"                          .X@#++++#@X.                          ",
"                           .X@#++#@X.                           ",
"                            .X@$$@X.                            ",
"                             .O@@O.                             ",
"                              .oo.                              "
};
