/* XPM */
static char *result[] = {
/* columns rows colors chars-per-pixel */
"64 64 233 2 ",
"   c #3E1F0C",
".  c #4A250A",
"X  c #543511",
"o  c #5F3310",
"O  c #6C3D13",
"+  c #483123",
"@  c #7A4315",
"#  c #794617",
"$  c #7C4517",
"%  c #7F4716",
"&  c #7E4919",
"*  c #6B5016",
"=  c #7F621A",
"-  c #534038",
";  c #794E27",
":  c #614C3E",
">  c #755438",
",  c #5D4E4D",
"<  c #675143",
"1  c #6B594E",
"2  c #5D6A7A",
"3  c #726F75",
"4  c #6C737C",
"5  c #804E1C",
"6  c #85501A",
"7  c #8C561D",
"8  c #92581D",
"9  c #8D6C1E",
"0  c #8C5E25",
"q  c #9C6120",
"w  c #986922",
"e  c #91632B",
"r  c #9D6F28",
"t  c #977E21",
"y  c #A37325",
"u  c #A07837",
"i  c #8B7457",
"p  c #82755C",
"a  c #807F5E",
"s  c #7E8064",
"d  c #A58326",
"f  c #B18228",
"g  c #B19327",
"h  c #A6813F",
"j  c #B89430",
"k  c #BDA32A",
"l  c #C59A2F",
"z  c #F28C2B",
"x  c #F28D2B",
"c  c #F38E2A",
"v  c #F38F2A",
"b  c #F28E2B",
"n  c #F38E2B",
"m  c #F28B2C",
"M  c #F28D2D",
"N  c #F38E2C",
"B  c #F28F2C",
"V  c #F28C2F",
"C  c #F3912A",
"Z  c #F3902B",
"A  c #F3932A",
"S  c #F3932B",
"D  c #F3962A",
"F  c #F4962A",
"G  c #F4992A",
"H  c #F49A2B",
"J  c #F49E29",
"K  c #F49C2A",
"L  c #F59D2A",
"P  c #F49E2A",
"I  c #C6A82F",
"U  c #D4AB32",
"Y  c #DEA739",
"T  c #D5BA31",
"R  c #F5A12A",
"E  c #F5A52B",
"W  c #F6A82B",
"Q  c #F6AB2B",
"!  c #F6AE2B",
"~  c #EBB92F",
"^  c #F6B02B",
"/  c #F7B22C",
"(  c #F7B42C",
")  c #F7B72D",
"_  c #F7B82C",
"`  c #F8BE2B",
"'  c #F8BB2C",
"]  c #F8BF2D",
"[  c #E3B534",
"{  c #E4BD3B",
"}  c #F8BD36",
"|  c #F9C72B",
" . c #FDC72B",
".. c #F9C12D",
"X. c #FBC32E",
"o. c #F9C42C",
"O. c #FBC62C",
"+. c #FCC72C",
"@. c #FCC72E",
"#. c #FACB2B",
"$. c #FFC92A",
"%. c #FACE2B",
"&. c #FCCC2B",
"*. c #FDC92C",
"=. c #FECE2F",
"-. c #FDD02A",
";. c #FDD32A",
":. c #FAD42B",
">. c #FDD72A",
",. c #FBD12C",
"<. c #FAD32C",
"1. c #FBD72C",
"2. c #FDDB2B",
"3. c #FCDE2E",
"4. c #E3C732",
"5. c #E4C63B",
"6. c #E4CB3B",
"7. c #FCC931",
"8. c #FBC63C",
"9. c #F1CB39",
"0. c #ECD032",
"q. c #F6DC32",
"w. c #FDD639",
"e. c #82845D",
"r. c #9E9051",
"t. c #AD8942",
"y. c #A0984F",
"u. c #B59348",
"i. c #BD9B4C",
"p. c #B2A356",
"a. c #D59043",
"s. c #C8AD44",
"d. c #C4A151",
"f. c #C3AB53",
"g. c #C2B553",
"h. c #CBB155",
"j. c #DBB95E",
"k. c #E2B956",
"l. c #F8C041",
"z. c #F9C442",
"x. c #FBC743",
"c. c #F6CC49",
"v. c #FBC94B",
"b. c #FBD044",
"n. c #E9C05B",
"m. c #E3CA5F",
"M. c #FBCA50",
"N. c #FBCC57",
"B. c #FBCE5D",
"V. c #F5D459",
"C. c #ECC76C",
"Z. c #F9CE66",
"A. c #F5D762",
"S. c #FBD064",
"D. c #FBD169",
"F. c #FBD26C",
"G. c #FBD46F",
"H. c #F8DB6E",
"J. c #FBD474",
"K. c #FBD576",
"L. c #FCD67A",
"P. c #F9DE7B",
"I. c #FBD87F",
"U. c #526A83",
"Y. c #546B84",
"T. c #546C86",
"R. c #597089",
"E. c #597189",
"W. c #547090",
"Q. c #5B7490",
"!. c #5A789B",
"~. c #5D7A9D",
"^. c #687A83",
"/. c #687D8A",
"(. c #617B97",
"). c #6A7D96",
"_. c #657F9C",
"`. c #6A86A8",
"'. c #6F8DB0",
"]. c #6B90B6",
"[. c #6F96BD",
"{. c #7895B8",
"}. c #7AA0C7",
"|. c #8E8887",
" X c #9A9799",
".X c #A4A2A4",
"XX c #B4B3B5",
"oX c #FBDA83",
"OX c #FBDB89",
"+X c #FBDC8C",
"@X c #FBDD90",
"#X c #FBDE94",
"$X c #FBE098",
"%X c #FBE19B",
"&X c #FBE2A0",
"*X c #FBE4A4",
"=X c #FBE4A7",
"-X c #FBE6AB",
";X c #FBE7AF",
":X c #FCE8B3",
">X c #FCE9B6",
",X c #FCEABA",
"<X c #FCEBBD",
"1X c #819FC3",
"2X c #81A2C9",
"3X c #85A6CD",
"4X c #87A9D1",
"5X c #91B3DC",
"6X c #93B5DE",
"7X c #94B6DF",
"8X c #95B8E1",
"9X c #C4C6C8",
"0X c #C8C9CB",
"qX c #CED0D2",
"wX c #D4D6D7",
"eX c #DBDCDD",
"rX c #FCEDC2",
"tX c #FCEEC7",
"yX c #FCEFCA",
"uX c #FCF0CE",
"iX c #FCF1D1",
"pX c #FCF2D4",
"aX c #FCF3D7",
"sX c #FCF5DC",
"dX c #FCF6DF",
"fX c #E1E2E3",
"gX c #E5E5E6",
"hX c #EDEDEE",
"jX c #FCF7E5",
"kX c #FCF8E8",
"lX c gray96",
"zX c #FDFDFD",
"xX c None",
/* pixels */
"xXxXxXxXxXxXxXxXxXxXxXxXxXxXxXxXxXxXxXxXxXxXxXxXxXxXxXxXxXxXxXxXxXxXxXxXxXxXxXxXxXxXxXxXxXxXxXxXxXxXxXxXxXxXxXxXxXxXxXxXxXxXxXxX",
"xXxXxXxXxXxXxXxXxXxXxXxXxXxXxXxXxXxXxXxXxXxXxXxXxXxXxXxXV M B N N B M V xXxXxXxXxXxXxXxXxXxXxXxXxXxXxXxXxXxXxXxXxXxXxXxXxXxXxXxX",
"xXxXxXxXxXxXxXxXxXxXxXxXxXxXxXxXxXxXxXxXxXxXxXV z Z C D D H H H H H H D A C Z z xXxXxXxXxXxXxXxXxXxXxXxXxXxXxXxXxXxXxXxXxXxXxXxX",
"xXxXxXxXxXxXxXxXxXxXxXxXxXxXxXxXxXxXxXxXxXn c D H R E W Q Q Q ! Q Q Q W E E P H A c z xXxXxXxXxXxXxXxXxXxXxXxXxXxXxXxXxXxXxXxXxX",
"xXxXxXxXxXxXxXxXxXxXxXxXxXxXxXxXxXxXxXx A H R W ! ^ / ( ) } l.l.l.l.l.} ) / ! Q E R H v x xXxXxXxXxXxXxXxXxXxXxXxXxXxXxXxXxXxXxX",
"xXxXxXxXxXxXxXxXxXxXxXxXxXxXxXxXxXx D P E Q ^ ) ' z.Z.OX=X,XtXuXiXiXyXrX;X@XZ.l.( ! W E H A b xXxXxXxXxXxXxXxXxXxXxXxXxXxXxXxXxX",
"xXxXxXxXxXxXxXxXxXxXxXxXxXxXxXN C H E ! / _ l.F.=XuXdXkXkXkXjXjXjXjXjXjXjXjXdXyX%XZ.} ^ Q R D C B xXxXxXxXxXxXxXxXxXxXxXxXxXxXxX",
"xXxXxXxXxXxXxXxXxXxXxXxXxXxXx D R Q / _ z.I.rXdXjXdXdXdXdXdXdXdXdXsXsXsXsXsXsXsXdXaX;XF.} ^ W P A x xXxXxXxXxXxXxXxXxXxXxXxXxXxX",
"xXxXxXxXxXxXxXxXxXxXxXxXxXv H E ^ ) } G.,XsXsXsXaXaXaXaXaXaXaXaXaXaXaXaXaXpXpXpXpXpXaXiX=XN.( Q R D v xXxXxXxXxXxXxXxXxXxXxXxXxX",
"xXxXxXxXxXxXxXxXxXxXxXV C P W / ' z.$XiXaXpXpXpXpXiXiXiXiXiXiXiXiXuXuXuXuXuXuXuXuXyXyXyXuXrXI.} ! E H c xXxXxXxXxXxXxXxXxXxXxXxX",
"xXxXxXxXxXxXxXxXxXxXxXC P Q ( ' N.;XuXuXuXyXyXyXyXyXyXyXyXyXyXtXtXtXtXtXtXtXtXtXtXrXtXrXrXrXrX#Xl.^ W H c xXxXxXxXxXxXxXxXxXxXxX",
"xXxXxXxXxXxXxXxXxXxXC P Q ) ` B.>XtXtXtXtXrXrXrXrXrXrXrX<XrXrXrXrX<X<X<X<X<X<X<X<X<X<X,X,X,X,X,X$Xl.^ W H c xXxXxXxXxXxXxXxXxXxX",
"xXxXxXxXxXxXxXxXxXv P Q ) ` B.:XrX<X<X<X<X<X,X,X,X,X,X,X,X,X>X>X>X>X>X>X>X>X:X:X:X:X:X:X:X;X;X;X:X@Xl.^ E D v xXxXxXxXxXxXxXxXxX",
"xXxXxXxXxXxXxXxXx H W ( ' M.=X>X>X>X:X:X:X:X:X:X:X;X;X;X;X;X;X;X;X;X-X-X-X-X-X-X-X-X-X=X=X=X=X=X=X=XI.} ^ E A n xXxXxXxXxXxXxXxX",
"xXxXxXxXxXxXxXB D E / ' 8.@X;X-X-X-X-X-X-X-X=X=X=X=X=X=X=X=X=X*X*X*X*X*X*X*X&X&X&X&X&X&X&X&X&X&X&X%X%XZ.) ! R v M xXxXxXxXxXxXxX",
"xXxXxXxXxXxXxXC R ! ' ] D.*X*X*X*X*X&X&X&X&X&X&X&X&X&X&X%X%X%X%X%X%X%X%X%X$X$X$X$X$X$X#X#X#X#X#X#X#X#X+Xz.( Q H c xXxXxXxXxXxXxX",
"xXxXxXxXxXxXb H Q ) ] z.+X%X%X%X%X$X$X$X$X$X$X#X#X#X#X#X#X#X#X#X#X@X@X@X@X@X@X@X@X+X+X+X+X+X+X+XOXOXOXOXD.' / E A z xXxXxXxXxXxX",
"xXxXxXxXxXxXA E / ' ] S.#X@X@X@X@X+XOX+X@X+X+X+X+X+X+XOXOXOXOXOXOXOXOXoXoXoXoXoXoXoXoXoXoXI.I.oXI.I.I.I.L.z.) Q P v xXxXxXxXxXxX",
"xXxXxXxXxXb H Q _ ] 8.I.OXOXoXC.d.h u f.P.oXoXoXoXI.I.I.I.I.I.I.I.I.L.L.I.L.L.L.L.L.L.P.d.u h d.C.J.J.J.J.N.' / E A n xXxXxXxXxX",
"xXxXxXxXxXC E / ' ] M.I.I.C.u.0 & @ 5 i.P.L.L.K.K.K.K.K.K.K.J.J.J.J.J.J.G.G.G.G.G.G.G.H.u.5 @ & 0 i.C.D.D.B.} _ Q H c xXxXxXxXxX",
"xXxXxXxXN H Q ) ] X.S.J.j.r & $ 5 h m.H.G.G.G.F.F.F.F.F.F.D.D.D.D.D.D.D.S.D.S.S.S.S.S.S.H.j.u & $ & u k.B.B.8.' / E A B xXxXxXxX",
"xXxXxXxXv P ^ ' ] 8.D.j.e $ $ e h.H.D.S.S.S.S.S.S.S.S.B.B.B.B.B.B.B.B.B.B.B.B.N.N.N.N.N.N.B.A.f.0 $ $ e k.N.z.] ) W D Z xXxXxXxX",
"xXxXxXxXA E ( ] ] v.n.e $ & h m.S.B.N.N.N.N.N.N.N.N.N.N.N.N.N.N.M.M.M.M.M.M.M.M.M.M.v.v.v.v.v.V.m.u & $ r n.z.] ' ! P v xXxXxXxX",
"xXxXxXB D Q _ ] ..M.t.$ 5 u.A.N.M.M.M.v.v.v.v.v.v.v.v.x.x.x.x.8.8.8.8.8.8.8.8.x.x.x.z.z.z.x.x.8.v.V.u.& $ u.v.] ' / E v M xXxXxX",
"xXxXxXx P ! ' ] X.k.7 & i.A.v.z.[ l f y r y f l [ 7.7.@.+.+.+.+.+.+.+.+.+.*.o.[ l f y r y f l [ } 8.V.u.& 0 k...] ( W D n xXxXxX",
"xXxXxXv R / ' ] x.i.$ t.V.8.Y y 6 & $ $ $ $ $ & 7 f ~ *.+.+.+.+.+.+.+.+.7.U y 6 $ $ $ $ $ $ & 7 f ~ X.V.h $ d.8.] _ Q H v xXxXxX",
"xXxXxXC E / ] ..c.u e m.8.l 6 $ % % % % % % & & % $ w [ *.+.+.+.+.+.+.7.l 6 $ % & % % % % % % % $ w ~ 7.m.0 h c.] _ ! H c xXxXxX",
"xXxXxXA E ( ] ..c.t.h.b.[ 7 % & ; > > > > ; 5 & $ $ $ r o.+.+.+.+.+.+.[ 6 $ $ $ 5 5 ; > > > > ; & $ y o.b.h.u.c.` ' ! P v xXxXxX",
"xXxXV D W ) ] ..8.V.b.7.I ; 1 3 ).`.'.'.~.^.s.U j r 6 5 [ *.+.+.+.+.=.l 5 0 d I T p.Q.`.'.'.`.).3 < ; { X.b.V.8.] ' / R v xXxXxX",
"xXxXm D W ) ] ....X...@.9.s !.].[.[.[.[.`./.{ =.w.w.{ I 9.*.+.+.+.+.*.9.{ 9.w.w.=.f.!.].[.[.[.[.].W.e.9.X.......] ` / R v xXxXxX",
"xXxXM D W ) ] ......o.X.o.s !.[.}.}.}.}.'./.{  .+.+.=.=.*.+.+.+.+.+.+.+.=.*.+.+.$.f.Q.].}.}.}.}.].W.r. .X.o.o.o.o.] ( E v V xXxX",
"xXxXM D W ) ] ......o.X...s ~.3X5X6X7X6X{.^.{  .+.+.+.+.+.+.+.+.+.+.+.+.+.+.+.+.$.f.Q.1X7X7X6X5X}.W.r. .O.o.O.O.O.o.) E v V xXxX",
"xXxXm D W ) ] ....o.o.o.o.a ~.4X7X8X8X7X{.^.{  .+.+.+.+.+.+.+.+.+.+.+.+.+.+.+.+.$.f.Q.1X8X8X8X6X2XW.r. .O.O.O.*.#.| ' W v xXxXxX",
"xXxXxXA W ) ..o.o.o.O.O.o.a ~.4X7X8X8X7X{.^.{  .+.+.+.+.+.+.+.+.+.+.+.+.+.+.+.+.$.f.Q.1X8X8X8X6X2XW.r. .+.O.+.#.#.#.] Q v xXxXxX",
"xXxXxXA E _ o.| #.#.#.+.| a ~.4X7X8X8X7X{.^.{  .+.+.+.+.+.+.+.+.+.+.+.+.+.+.+.+.$.f.Q.1X8X8X8X6X2XW.r. .O.+.*.#.&.#.] Q C xXxXxX",
"xXxXxXC W ' | #.%.&.#.#.| a ~.4X7X8X8X7X{.^.{  .+.+.+.+.+.+.+.+.+.+.+.+.+.+.+.+.$.f.Q.1X8X8X8X6X2XW.r. .+.*.#.#.&.#.] W c xXxXxX",
"xXxXxXv W ] #.,.%.%.&.&.| a ~.4X7X8X8X7X{.^.{  .+.+.+.+.+.*.=.=.=.*.+.+.+.+.+.+.$.f.Q.1X8X8X8X6X2XW.r.*.*.#.#.&.%.#.` E Z xXxXxX",
"xXxXxXn E ` %.,.,.,.%.%.#.a ~.4X7X8X8X7X{.^.{  .+.+.+.*.,.4.I g g T 0.%.+.+.+.+.$.f.Q.1X8X8X8X6X2XW.r.&.#.#.&.&.%.#.' R z xXxXxX",
"xXxXxXM R ' #.<.<.,.,.,.#.a ~.4X7X8X8X7X{.^.{ *.*.+.&.4.t X + - - + * g 0.&.*.*.$.f.Q.1X8X8X8X6X2XW.r.&.&.&.%.%.%.| _ H V xXxXxX",
"xXxXxXxXG ( | ,.<.,.,.,.%.e.!.4X7X8X8X7X{.^.{ &.*.&.4.* + |.XX0X9XXX3 + 9 0.&.#.&.f.Q.1X8X8X8X6X2XW.r.-.%.%.%.,.%.o.^ F xXxXxXxX",
"xXxXxXxXZ Q ..%.<.:.<.<.%.e.!.4X7X8X8X7X{.^.{ &.&.0.= - XXwXfXgXfXeXqX X+ d <.&.-.f.Q.1X8X8X8X6X2XW.y.-.,.,.,.,.#...W S xXxXxXxX",
"xXxXxXxXM P ' #.<.:.:.:.<.e.!.4X7X8X8X7X{.^.5.-.<.k + .XwXfXhXlXlXhXeX0X3 X 4.,.;.g.Q.1X8X8X8X6X2XW.y.;.,.,.<.%.#.' R m xXxXxXxX",
"xXxXxXxXxXF ! o.%.:.:.:.<.e.!.4X7X8X8X7X{.^.5.;.1.= , 9XeXhXzXzXzXlXgXqX.X+ I >.;.g.Q.1X8X8X8X6X2XW.y.;.<.<.<.%.| ^ J xXxXxXxXxX",
"xXxXxXxXxXN R ' #.<.:.:.:.e.!.4X7X8X8X7X{.^.5.>.q.* - XXwXgXlXlXlXhXeX0X|.  k 2.>.g.Q.1X8X8X8X6X2XW.y.>.:.:.,.#.` E B xXxXxXxXxX",
"xXxXxXxXxXxXF ! o.%.:.:.:.e.!.4X7X8X8X7X{.^.6.>.q.=   + : : < < < < : - .   k 3.2.g.Q.1X8X8X8X6X2XW.y.>.:.<.%.| ( J xXxXxXxXxXxX",
"xXxXxXxXxXxXB P _ | <.:.<.e.!.4X7X8X8X7X{.^.6.2.q.= . . . . . . . . . . . X k 3.2.g.Q.1X8X8X8X6X2XW.y.>.:.<.#.` E M xXxXxXxXxXxX",
"xXxXxXxXxXxXxXv W ` %.<.<.e.!.4X7X8X8X7X{.^.6.2.q.9 o o o o o o o o o o o o I 3.2.g.Q.1X8X8X8X6X2XW.y.>.<.%.o.^ K xXxXxXxXxXxXxX",
"xXxXxXxXxXxXxXxXG ^ o.%.<.e.!.4X7X8X8X7X{.^.6.2.q.9 O O O O O O O O O O O O I 3.2.g.Q.1X8X8X8X6X2XW.y.;.%.| _ R xXxXxXxXxXxXxXxX",
"xXxXxXxXxXxXxXxXN P ( | %.e.!.4X7X8X8X7X{.^.6.2.q.d # # # # # # # # # # # # T 3.2.g.Q.1X8X8X8X6X2XW.y.;.#.` W B xXxXxXxXxXxXxXxX",
"xXxXxXxXxXxXxXxXxXb R _ | e.!.4X7X8X8X7X{.^.6.2.3.I 5 6 6 6 6 6 6 6 6 6 6 0 0.2.2.g.Q.1X8X8X8X6X2XW.y.&.` Q n xXxXxXxXxXxXxXxXxX",
"xXxXxXxXxXxXxXxXxXxXZ E ) a ~.4X7X8X8X7X{.^.6.2.2.0.r 7 8 8 7 7 7 7 8 8 7 g q.1.2.g.Q.1X8X8X8X6X2XW.r...! L xXxXxXxXxXxXxXxXxXxX",
"xXxXxXxXxXxXxXxXxXxXxXZ R p ~.4X7X8X8X7X{.^.6.2.1.3.T w 8 q q q q q q 8 y 0.2.1.2.g.Q.1X8X8X8X6X2XW.r.! K xXxXxXxXxXxXxXxXxXxXxX",
"xXxXxXxXxXxXxXxXxXxXxXxXZ p !.4X7X8X8X7X{.^.6.>.1.1.3.4.f q q q q q q f 4.3.1.1.>.g.Q.1X8X8X8X6X2XW.h L xXxXxXxXxXxXxXxXxXxXxXxX",
"xXxXxXxXxXxXxXxXxXxXxXxXxX2 Q.2X6X8X8X7X{.^.6.>.1.1.1.q.q.T l f g l T q.2.1.1.1.>.g.Q.1X8X8X8X5X1XW.i xXxXxXxXxXxXxXxXxXxXxXxXxX",
"xXxXxXxXxXxXxXxXxXxXxXxXxXxX2 `.3X5X8X7X{.^.5.1.1.1.1.1.1.2.3.q.q.3.2.1.:.1.1.1.>.g.Q.1X8X8X5X1X~.T.xXxXxXxXxXxXxXxXxXxXxXxXxXxX",
"xXxXxXxXxXxXxXxXxXxXxXxXxXxXxXR._.{.4X5X{.^.5.,.<.:.:.:.1.:.1.1.1.:.1.1.1.:.:.:.;.g.Q.1X5X3X'.(.Y.xXxXxXxXxXxXxXxXxXxXxXxXxXxXxX",
"xXxXxXxXxXxXxXxXxXxXxXxXxXxXxXxXxXT._.{.`.^.[ | #.%.,.<.<.:.:.:.:.:.:.<.<.<.,.%.&.f.Q.'.'.(.R.xXxXxXxXxXxXxXxXxXxXxXxXxXxXxXxXxX",
"xXxXxXxXxXxXxXxXxXxXxXxXxXxXxXxXxXxXxXR.U.^.Y / _ ] o.| #.#.%.%.%.%.%.#.#.| o.] ' i.U.2 E.xXxXxXxXxXxXxXxXxXxXxXxXxXxXxXxXxXxXxX",
"xXxXxXxXxXxXxXxXxXxXxXxXxXxXxXxXxXxXxXxXxX4 a.F P E Q ^ ) _ ' ` ` ` ` ' ' ( ! W J a.xXxXxXxXxXxXxXxXxXxXxXxXxXxXxXxXxXxXxXxXxXxX",
"xXxXxXxXxXxXxXxXxXxXxXxXxXxXxXxXxXxXxXxXxXxXxXxXxXN S v F G P R R R R J J L B xXxXxXxXxXxXxXxXxXxXxXxXxXxXxXxXxXxXxXxXxXxXxXxXxX",
"xXxXxXxXxXxXxXxXxXxXxXxXxXxXxXxXxXxXxXxXxXxXxXxXxXxXxXxXxXxXxXxXxXxXxXxXxXxXxXxXxXxXxXxXxXxXxXxXxXxXxXxXxXxXxXxXxXxXxXxXxXxXxXxX",
"xXxXxXxXxXxXxXxXxXxXxXxXxXxXxXxXxXxXxXxXxXxXxXxXxXxXxXxXxXxXxXxXxXxXxXxXxXxXxXxXxXxXxXxXxXxXxXxXxXxXxXxXxXxXxXxXxXxXxXxXxXxXxXxX",
"xXxXxXxXxXxXxXxXxXxXxXxXxXxXxXxXxXxXxXxXxXxXxXxXxXxXxXxXxXxXxXxXxXxXxXxXxXxXxXxXxXxXxXxXxXxXxXxXxXxXxXxXxXxXxXxXxXxXxXxXxXxXxXxX",
"xXxXxXxXxXxXxXxXxXxXxXxXxXxXxXxXxXxXxXxXxXxXxXxXxXxXxXxXxXxXxXxXxXxXxXxXxXxXxXxXxXxXxXxXxXxXxXxXxXxXxXxXxXxXxXxXxXxXxXxXxXxXxXxX"
};
