/* XPM */
static char *_5d18fa0534d4023f391110b810239d20DyorQ9UlHH9YglN[] = {
/* columns rows colors chars-per-pixel */
"64 64 96 2 ",
"   c #47704C",
".  c #070706",
"X  c #040303",
"o  c #040303",
"O  c #010101",
"+  c #141312",
"@  c #020201",
"#  c None",
"$  c #424241",
"%  c #0C0B09",
"&  c #030202",
"*  c black",
"=  c gray4",
"-  c black",
";  c #4F4F4E",
":  c #878685",
">  c #363635",
",  c #3D3D3C",
"<  c #030302",
"1  c #060604",
"2  c #575655",
"3  c #010100",
"4  c black",
"5  c #080807",
"6  c #0D0D0C",
"7  c #252525",
"8  c #424241",
"9  c #2B2A2A",
"0  c #6D6C6B",
"q  c black",
"w  c #EE9D00",
"e  c #E78600",
"r  c #FECC00",
"t  c #FDC800",
"y  c #EB9100",
"u  c #EA8C00",
"i  c #E78200",
"p  c #EC9400",
"a  c #ED9800",
"s  c #F9BC00",
"d  c #F7B900",
"f  c #FAC200",
"g  c #F0A300",
"h  c #F4B200",
"j  c #FDD000",
"k  c #F3AC00",
"l  c #F2A600",
"z  c #EA8E00",
"x  c #010102",
"c  c #E67F00",
"v  c #FFD400",
"b  c #E98800",
"n  c #E88A00",
"m  c #F9C000",
"M  c #F6B400",
"N  c #F7B600",
"B  c #110E06",
"V  c #FBC400",
"C  c #FBC500",
"Z  c #F1A900",
"A  c #F0A000",
"S  c #F3AF00",
"D  c #251B08",
"F  c #3E2A01",
"G  c #090600",
"H  c #32240A",
"J  c #C8A30A",
"K  c #816202",
"L  c #655324",
"P  c #844B00",
"I  c #493801",
"U  c #695000",
"Y  c #BB6D00",
"T  c #5B3200",
"R  c #AA8A16",
"E  c #975501",
"W  c #463C1F",
"Q  c #997807",
"!  c #B58C03",
"~  c #D8AE0F",
"^  c #574204",
"/  c #876A21",
"(  c #F1C300",
")  c #CB8C12",
"_  c #EBBF07",
"`  c #DF9209",
"'  c #D07501",
"]  c #D77E00",
"[  c #EBB202",
"{  c #AB7C21",
"}  c #E2BA11",
"|  c #B99804",
" . c #DBA300",
".. c #A86000",
"X. c #D09E00",
"o. c #F6CC09",
/* pixels */
"                                                  % . o < 4 X X X X 4 6 . 1 $                                                   ",
"                                          $ . < * 3 = - O # # x x # # O - @ & X o %                                             ",
"                                      1 < 5 = # q q q x x # # B B # # x q q q q O @ * o %                                       ",
"                                  . X @ O q q x B H L / Q ! J J J | ! Q K I D G q q q O 3 < %                                   ",
"                              1 X @ # q x + W Q J _ j v v v v v v v v v v j } | K F G q q # 3 6 $                               ",
"                          $ 6 3 # q x H / ~ o.v v v v v v v v v v v v v v v v v v ( | U B q q O 5 .                             ",
"                        % X - q x D / } j v v j v j v v j v v j v j v j v v v v v v v j J U B q q = <                           ",
"                      . & # q B L ~ j v j j j j j j j j j j j j j j j j j j j j j j j j v j | I q q O X %                       ",
"                    o @ q q H R o.v j j j j j j j j j j j j j j j j j j j j j j j j j j j j v _ K B q x 5 %                     ",
"                  o @ q x W ~ r r r r r r r r r r r r r r r r r r r r r r r r r r r r r r r r r r ! D q x & 1                   ",
"                o @ q # L } r r r r r r r r r r r r r ( _ ( r r r r r r r r r r r r r r r r r r r j J F q x & %                 ",
"              . @ q # L _ r r r r r r r r r r r t ( R ^ F I K ~ r r r r r r r r r r r r r r r r r r v J F q x 5 %               ",
"            1 & q x L _ r t t t t t C t t t t t ( K B q q q q F J r t t t t t t t t t t t t t t t t t r J F q # X               ",
"          $ X # q W } t t t t t C t t t t C t C R B q q q q q q ^ ( t t t t t t t t t t t t t t t t t t t J D q O ;             ",
"          6 - q H ~ t t t t C t t t t t t t t ( U q q q q q q q + J t t t t t t t t t t t t t t t t t t t C R B q @ .           ",
"        1 @ q B R C C C C C C C C C C C C C V _ I q q q q q q x # R t C C C C C C C C C C C C C C C C C C C m U q x >           ",
"      $ X # x L m V V V V V V C C V C V V V V ( ^ q q q q q q q B J t V V V V V V V V V V V V V V V V V V V C ~ F q + ;         ",
"      % 5 q x I ! m V f f f f f f f f f f f f m Q q q q q q q q W } f f f f f f f f f f f f f f f f f f f f f f R G q 9 $       ",
"        % X = q B U X.f f f f f f f f f f f f f [ ^ q q q q q + R f f f f f f f f f f f f f f f f f f f f f f f _ ^ q + ;       ",
"            . * - q D K ~ f m m m m m m m m m m f ~ U D B B W R m m m m m m m m m m m m m m m m m m m m m m s m m ! B x 9 $     ",
"                o & O q H Q [ f s s s s s s s s s m d  .| J [ m s s s s s s s s s s s s s s s s s s s s s s s s s [ I q + 2     ",
"                  $ 6 @ x G I ! d s s s s s s s s s s s s s s s s s s s s s s s s s s s s s s s s s s s s s s s s s Q x # 8     ",
"                      % X = q B U X.s s d d d d d d d d d d d d d d d d d d d d d d d d d d d d d d d d d d d d d s X.D q 7 :   ",
"                          . * - q D K  .s d d d d d d d d d d d d d d d d d d d d d d d d d d d d d d d d d d d d d h ^ q + 2   ",
"                              o & O q H Q [ d N N N N N N N N N N N N N N N N N N N N N N N N N N N N N N N N N N N d Q x # ,   ",
"                                $ < @ x G I ! h N M M M M M M M M M M M M M M M M M M M M M M M M M M M M M M M M M N ! B x >   ",
"                                    % X = q B U ) M M h h h h h h h h h h h h h h h h h h h h h h h h h h h h h h h M  .H q 7 : ",
"                                        . * - q D K  .M h h h h h h h h h h h h h h h h h h h h h h h h h h h h h S h Z I q = 0 ",
"                                            o & O q H Q Z M S S S S S S S S S S S S S S S S S S S S S S S S S S S S S k U q + 2 ",
"                                              $ < @ x G I ! Z k k k k k k k k k k k k k k k k k k k k k k k k k k k k S U q + ; ",
"                                                  % X = x B K k k k k k k k k k k k k k k k k k k k k k k k k k k k k k K q + , ",
"                                                    $ X O q L Z Z Z Z Z Z Z Z Z Z Z Z Z Z Z Z Z Z Z Z Z Z Z Z Z Z Z Z k K q B , ",
"                                                  . * - x D { Z l l l l l l l l l l l l l l l l l l l l l l l l l l l l K q B , ",
"                                              % 4 @ x B L ) Z g l l g l l l g l l l g l l l g l l l g l l l g l l l l l K q B , ",
"                                          $ o & O # W { g l g g g g g g g g g g g g g g g g g g g g g g g g g g g g g g U q + ; ",
"                                        . * - x D / ` l g g g g g g g g g g g g g g g g g g g g g g g g g g g g g g g w ^ q + 2 ",
"                                    % 4 @ x B L ) g A A w A w w w A A A A A A A A A A A A A A A A A A A A A A A A A A ` F q = 0 ",
"                                $ o & O # W { w A w w w w w w w w w w w w w w w w w w w w w w w w w w w w w w w w w g ) D q 7 : ",
"                              . * - x D / ` A w w w w w w w w w w w w w w w w w w w w w w w w w w w w w w w w w w w A Y B x >   ",
"                          % 4 @ x B L ) w a a w w w w w w w w w w w w w w w w w w w w w w w w w w w w w w w w w w w w P q # ,   ",
"                      $ o & O # W { a a a a a a a a a a a a a a a a a a a a a a a a a a a a a a a a a a a a a a a a ` I q + 2   ",
"                    . * - x D / ` a a a a a a a a a a a a a a a a a a a a a a a a a a a a a a a a a a a a a a a a w Y B q 7 :   ",
"                % 4 @ x B L ) a a p p p p p p p p p p p p p p p p p p p p p p p p p p p p p p p p p p p p p p p p p P x # 8     ",
"            $ o & O # W { y p y p p p p p p p p p p p p p p p p p p p p p p p p p p p p p p p p p p p p p p p p p ] H q + 2     ",
"        $ o * - x D / ` p y y y y y y y y y y y y y y y y y y y y y y y y y y y y y y y y y y y y y y y y y y y y E G x > $     ",
"      % * - q B L ) y z y y y y y y y y y y y y y y y y y y y y y y y y y y y y y y y y y y y y y y y y y y y y ] F q + ;       ",
"      1 @ q # / y z z z z z z z z z z z z z z z z z z z z z z z z z z z z z z z z z z z z z z z z z z z z z z u P G x 9 $       ",
"        4 O x ^ ` u u u u u u u u u u u u u u u u u u u u u u u u u u u u u u u u u u u u u u u u u u u u u y Y D q + ;         ",
"        % & q # E u u u u u u u u u u u u u u u u u u u u u u u u u u u u u u u u u u u u u u u u u u u u u ] T q # 8 $         ",
"          . = q D Y u n n n n n n n n n n n n n n n n n n n n n n n n n n n n n n n n n n n n n n n n n n e P G q 7 0           ",
"            4 O q H ' u b b b b b b b b b b b b b b b b b b b b b b b b b b b b b b b b b b b b b b b b e E B q + ;             ",
"            $ * q x F ' b e e e e e e e e e e e e e e e e e e e e e e e e e e e e e e e e e e e e e b e ..D q B 8 $             ",
"              % & q x F ' b e e e e e e e e e e e e e e e e e e e e e e e e e e e e e e e e e e e e e ..D q # > :               ",
"                1 3 q q F Y b e e e e e e e e e e e e e e e e e e e e e e e e e e e e e e e e e e i E D q # > :                 ",
"                  . 3 q q D ..i i i i i i i i i i i i i i i i i i i i i i i i i i i i i i i i i ] P B q # > :                   ",
"                    1 & x q B P ] i i i i i i i i i i i i i i i i i i i i i i i i i i i i i i Y T G q B > :                     ",
"                      % * O q x F ..c c i i i i i i i i i c i c i i i i i i i i i i i i i ' P D q q + 8 :                       ",
"                        $ < = q q B T Y c c i c c c c c c c c c c c c c c c c c c c i ' E F G q # = ; $                         ",
"                            . 5 O q q B T E ' c c c c c c c c c c c c c c c c c c Y P F G q x + > 0                             ",
"                              $ 6 3 # q q G H T E Y ] c c c c c c c c c c ' Y P T D x q x + 9 ; $                               ",
"                                  % < 3 O q q q G B H T T P E E E P P T T H B x q q # + 9 ; :                                   ",
"                                      $ o * @ O x q q q x q q x x q q q q q x # + 7 8 2 $                                       ",
"                                            % o X 5 @ = O O # # # # O + = 7 > , 2 :                                             ",
"                                                    % . o 6 , , , , ; 2 0 :   $                                                 "
};
