/* XPM */
static char *_2c3c672e70d44efa9c85ef68d09073eFbASu1YwVqtefXPe[] = {
/* columns rows colors chars-per-pixel */
"64 64 172 2 ",
"   c #47704C",
".  c #151515",
"X  c black",
"o  c black",
"O  c #090806",
"+  c #090908",
"@  c #030202",
"#  c #66635D",
"$  c #020201",
"%  c black",
"&  c #030302",
"*  c gray1",
"=  c #868482",
"-  c #010101",
";  c #030302",
":  c #060604",
">  c #060606",
",  c black",
"<  c #040404",
"1  c None",
"2  c #5B5B5A",
"3  c #010101",
"4  c #010100",
"5  c black",
"6  c #0D0D0C",
"7  c #151310",
"8  c #080807",
"9  c #252525",
"0  c #BAB9B7",
"q  c #010000",
"w  c #424241",
"e  c #010100",
"r  c #2C2C2B",
"t  c #6D6C6B",
"y  c #494846",
"u  c #51504F",
"i  c #282727",
"p  c gray24",
"a  c #0C0B0A",
"s  c #686766",
"d  c #3A3A3A",
"f  c gray54",
"g  c black",
"h  c #202020",
"j  c #373633",
"k  c #010000",
"l  c #030202",
"z  c #282726",
"x  c gray22",
"c  c #454444",
"v  c black",
"b  c #F7B900",
"n  c #EE9C00",
"m  c #E78600",
"M  c #F0A300",
"N  c #FCC800",
"B  c #FDCC00",
"V  c #FDD000",
"C  c #EA8B00",
"Z  c #EA8E00",
"A  c #E98D00",
"S  c #EB9100",
"D  c #EB9300",
"F  c #EC9500",
"G  c #EA9000",
"H  c #FFCE00",
"J  c #EC9700",
"K  c #E88A00",
"L  c #E88800",
"P  c #F8BB00",
"I  c #E78700",
"U  c #ED9900",
"Y  c #F9BF00",
"T  c #FAC100",
"R  c #F7B600",
"E  c #EE9E00",
"W  c #FBC400",
"Q  c #F9BD00",
"!  c #F5B400",
"~  c #F0A000",
"^  c #E87F00",
"/  c #FEC900",
"(  c #FFD300",
")  c #FAC200",
"_  c #E78300",
"`  c #F4B200",
"'  c #FBC500",
"]  c #E68100",
"[  c #F3B100",
"{  c #F1A500",
"}  c #F2A700",
"|  c #F3AB00",
" . c #F2AD00",
".. c #E57F00",
"X. c #F3AF00",
"o. c #F1A900",
"O. c #010102",
"+. c #070707",
"@. c #120D00",
"#. c #FFD600",
"$. c #100F0D",
"%. c #090600",
"&. c #281B01",
"*. c #574204",
"=. c #201601",
"-. c #876A21",
";. c #422702",
":. c #CDA707",
">. c #392E00",
",. c #634D00",
"<. c #644F22",
"1. c #874E00",
"2. c #D07501",
"3. c #532F00",
"4. c #43381F",
"5. c #9B7400",
"6. c #272218",
"7. c #D77E00",
"8. c #362402",
"9. c #BB6901",
"0. c #4C3901",
"q. c #C29F0E",
"w. c #855F00",
"e. c #AD8F24",
"r. c #F6C104",
"t. c #AB7C21",
"y. c #C98B18",
"u. c #B98A00",
"i. c #E2BA11",
"p. c #9C5700",
"a. c #B99804",
"s. c #665A27",
"d. c #7F4700",
"f. c #915303",
"g. c #F1C401",
"h. c #EAB303",
"j. c #DFAE00",
"k. c #433603",
"l. c #A68400",
"z. c #EBBC00",
"x. c #836703",
"c. c #DBA300",
"v. c #DE8E09",
"b. c #BB7300",
"n. c #A86000",
"m. c #D0AE1B",
"M. c #2E2A19",
"N. c #735500",
"B. c #E07B00",
"V. c #683800",
"C. c #AF8F07",
"Z. c #F0C000",
"A. c #D09E00",
"S. c #786304",
"D. c #DF980B",
"F. c #F9CF01",
"G. c #4D4521",
"H. c #EA8700",
"J. c #EBC210",
"K. c #958013",
"L. c #2F1D00",
"P. c #EF9A00",
"I. c #F3B800",
"U. c #CE9000",
"Y. c #E79208",
"T. c #F6CC09",
"R. c #F6B200",
"E. c #1D1100",
"W. c #E9A900",
"Q. c #EBAD00",
"!. c #001400",
"~. c #47704C",
/* pixels */
"                                                  $ : k 6 5 3 q q q 5 ; l + 7 #                                                 ",
"                                          # O e q @ & X < , , O.O., , % X * 4 o ; + $                                           ",
"                                      7 l o & % v v v v O.+.+.$.$.+.+.O.O.v v v , * 8 ; : #                                     ",
"                                  7 ; 4 < v v v %.&.0.S.K.C.a.q.q.q.C.K.-.<.M.$.O.v v % - q + #                                 ",
"                              $ 6 4 , v v %.>.S.a.i.F.#.#.#.#.#.#.#.#.#.#.F.J.:.K.G.1 O.v , & 3 :                               ",
"                            + 8 < v v @.,.a.g.( #.( ( ( ( ( ( ( ( ( ( ( ( ( #.#.#.T.m.-.M.O.v , 4 6 $                           ",
"                        # ; * v v @.,.:.F.#.( ( ( ( ( ( V ( V ( V ( ( V ( ( V ( V ( ( V i.-.6.O.v X a O                         ",
"                      7 a < v v k.a.F.( V V V V V V V V V V V V V V V V V V V V V V V V ( V m.s.$.v , @ +                       ",
"                    O 8 O.v @.x.z.( V V V V V V V V V V V V V V V V V V V V V V V V V V V V ( T.e.M.v v - >                     ",
"                  : @ O.v &.C.B H B B B B B B B B B B B B B B B B B H H B B B B B B B B B B B H H m.G.O.v & l                   ",
"                O @ O.v >.:.H B B B B B B B B B B B B B B B B B B B g.z.g.B B B B B B B B B B B B H i.s.+.v & >                 ",
"              7 8 O.v >.:.H B B B B B B B B B B B B B B B B B B j.x.k.>.*.l.Z.B B B B B B B B B B B B J.s.+.v - k               ",
"            # a +.v >.:.B N N N N N N N N N N N N N N N N N B :.>.v v v v @.S.Z.N N N N N N N N N N N B J.s.O.v @ :             ",
"          # j < v &.q./ N N N N N N N N N N N N N N N N N N g.*.v v v v v v @.l.N N N N N N N N N N N N N i.G.v , a $           ",
"          + & v @.l.N N N N N N N N N N N N N N N N N N N / :.1 v v v v v v v ,.r.N N N N N N N N N N N N / m.M.v X 6           ",
"      # # z O.v N.r.' ' ' ' ' ' ' ' ' ' ' ' ' ' ' ' ' ' ' / e.+.v v v v v v v k.z.' ' ' ' ' ' ' ' ' ' ' ' ' ' e.$.v - :         ",
"        j 1 v >.j.' W W W W W W W W W W W W W W W W W W W N q.$.v v v v v v v *.Z.W W W W W W W W W W W W W W r.s.O., q $       ",
"    # $ i v %.l.W ) ) ) ) ) ) ) ) ) ) ) ) ) ) ) ) ) ) ) ) ) i.4.v v v v v v v 5.) ) ) ) ) ) ) ) ) ) ) ) ) W r.u.k.O.v 8 7       ",
"      j 1 v *.z.T T T T T T T T T T T T T T T T T T T T T T T e.1 v v v v v *.h.) T T T T T T T T T T ) T A.,.@.v * 3 O         ",
"    0 i O.@.C.T Y Y Y Y Y Y Y Y Y Y Y Y Y Y Y Y Y Y Y Y Y Y Y r.e.4.$.$.=.N.j.T Y Y Y Y Y Y Y Y Y Y T j.x.=.v X o +             ",
"    y . v 0.h.Q Q Q Q Q Q Q Q Q Q Q Q Q Q Q Q Q Q Q Q Q Q Q Q Q Y h.q.a.c.b Y Q Q Q Q Q Q Q Q Q T h.5.8.v % @ > #               ",
"    w +.O.5.Q P P P P P P P P P P P P P P P P P P P P P P P P P P P Q Q Q P P P P P P P P P Q I.u.0.%.O.- 6 $                   ",
"  = 9 v &.A.P b b b b b b b b b b b b b b b b b b b b b b b b b b b b b b b b b b b b b P P A.,.@.v * 3 O                       ",
"  y . v *.[ b b b b b b b b b b b b b b b b b b b b b b b b b b b b b b b b b b b b b P c.w.=.v X o +                           ",
"  r +.O.5.b R R R R R R R R R R R R R R R R R R R R R R R R R R R R R R R R R R R b Q.5.8.v % @ > #                             ",
"# z O.@.u.R ! ! ! ! ! ! ! ! ! ! ! ! ! ! ! ! ! ! ! ! ! ! ! ! ! ! ! ! ! ! ! ! ! R [ u.0.%.O.- ; $                                 ",
"= 9 v L.c.! ` ` ` ` ` ` ` ` ` ` ` ` ` ` ` ` ` ` ` ` ` ` ` ` ` ` ` ` ` ` ` ! ! U.,.@.v * 3 O                                     ",
"t h v 0.W.` [ [ [ [ [ [ [ [ [ [ [ [ [ [ [ [ [ [ [ [ [ [ [ [ [ [ [ [ [ ` R.c.w.=.v X g +                                         ",
"s . v ,. .X.X.X.X.X.X.X.X.X.X.X.X.X.X.X.X.X.X.X.X.X.X.X.X.X.X.X.X.X.R.W.5.8.v % @ > #                                           ",
"2 1 v N. . . . . . . . . . . . . . . . . . . . . . . . . . . . . .o.u.0.%.O.- ; $                                               ",
"u 1 v w.| | | | | | | | | | | | | | | | | | | | | | | | | | | |  .x.@.O.* 3 O                                                   ",
"u $.v w.| o.o.o.o.o.o.o.o.o.o.o.o.o.o.o.o.o.o.o.o.o.o.o.o.o.o.o.o.<.v < 3 $                                                     ",
"u $.v w.} } } } } } } } } } } } } } } } } } } } } } } } } } } } o.t.6.O.X o + #                                                 ",
"u $.v w.{ { { { { M { { { M { { { M { { { M { { { M { { { M { { M o.y.<.$.O.& 5 O                                               ",
"2 1 v N.M M M M M M M M M M M M M M M M M M M M M M M M M M M M M M } M t.4.+.% @ e $                                           ",
"s . v *.E M M M M M M M M M M M M M M M M M M M M M M M M M M M M M M M { D.-.6.O.X o + #                                       ",
"t h v ;.D.~ ~ ~ ~ ~ ~ ~ ~ ~ ~ ~ ~ ~ ~ ~ ~ ~ ~ ~ ~ ~ ~ ~ ~ ~ ~ E E E ~ E ~ ~ M y.<.$.O.& 5 O                                     ",
"= 9 v &.U.~ E E E E E E E E E E E E E E E E E E E E E E E E E E E E E E E E E ~ E t.4.+.% @ e $                                 ",
"# p O.@.b.~ n n n n n n n n n n n n n n n n n n n n n n n n n n n n n n n n n n E ~ D.-.6.O.X o + #                             ",
"# u +.v 1.n n n n n n n n n n n n n n n n n n n n n n n n n n n n n n n n n n n n U P.n y.<.$.O.& 5 O                           ",
"  s . v 0.v.U U U U U U U U U U U U U U U U U U U U U U U U U U U U U U U U U U U U U U P.J t.4.+.% @ e $                       ",
"  = 9 v E.b.U J J J J J J J J J J J J J J J J J J J J J J J J J J J J J J J J J J J J J J J P.v.-.6.O.X o + #                   ",
"    w +.O.1.F F F F F F F F F F F F F F F F F F F F F F F F F F F F F F F F F F F F F F F F F J J y.<.$.O.& 5 O                 ",
"    s . v 8.7.F D D D D D D D D D D D D D D D D D D D D D D D D D D D D D D D D D D D D D D D D S F Y.t.4.+.% @ e $             ",
"    0 d O.%.f.S S S S S S S S S S S S S S S S S S S S S S S S S S S S S S S S S S S S S S S S S S S S D v.-.6.O.X g > $         ",
"      2 1 v ;.7.S G G G G G G G G G G G G G G G G G G G G G G G G G G G G G G G G G G G G G G G G G G G G S y.<.$.v X o O       ",
"      0 x O.%.1.A Z Z Z Z Z Z Z Z Z Z Z Z Z Z Z Z Z Z Z Z Z Z Z Z Z Z Z Z Z Z Z Z Z Z Z Z Z Z Z Z Z Z Z Z Z Z Y.-.+.v - :       ",
"        2 . v &.b.Z A A A A A A A A A A A A A A A A A A A A A A A A A A A A A A A A A A A A A A A A A A A A C v.*.O.% 5         ",
"        0 c +.v 3.7.C C C C C C C C C C C C C C C C C C C C C C C C C C C C C C C C C C C C C C C C C C C C C f.+.v @ 7         ",
"          t 9 v %.d.I K K K K K K K K K K K K K K K K K K K K K K K K K K K K K K K K K K K K K K K K K K A 9.=.v * k           ",
"          # 2 . v @.p.I L L L L L L L L L L L L L L L L L L L L L L L L L L L L L L L L L L L L L L L L C 2.8.v % 5             ",
"            0 w $.v =.n.I L I I I I I I I I I I I I I I I I I I I I I I I I I I I I I I I I I I I I I H.2.;.O.v g $             ",
"              = p +.v &.n.m m m m m m m m m m m m m m m m m m m m m m m m m m m m m m m m m m m m m H.2.;.O.v @ O               ",
"                f d +.v =.p.] m m m m m m m m m m m m m m m m m m m m m m m m m m m m m m m m m m H.b.;.v v 4 :                 ",
"                  f d +.v @.d.7._ _ _ _ _ _ _ _ _ _ _ _ _ _ _ _ _ _ _ _ _ _ _ _ _ _ _ _ _ _ _ _ _ n.&.v v 4 +                   ",
"                    f p $.v %.3.9.] _ ] ] ] ] ] ] ] ] ] ] ] ] ] ] ] ] ] ] ] ] ] ] ] ] ] ] ] _ 7.d.@.v O.@ :                     ",
"                      = w . v v &.1.2.] ] ] ] ] ] ] ] ] ] ] ] ] ] ] ] ] ] ] ] ] ] ] ] ] ^ ..n.;.O.v % o O                       ",
"                        0 2 h +.v %.;.p.2.] ^ ....................................] ^ B.9.V.@.v v * ; $                         ",
"                            t p . O.v %.;.1.9.B.^ ^ ........................^ ^ ..2.p.3.@.v v % 8 +                             ",
"                              0 2 i 1 O.v O.=.3.1.9.2.B...^ ^ ^ ^ ^ ^ ..B.7.9.p.V.L.%.v v , 4 6 $                               ",
"                                  = 2 i . +.v v O.@.L.3.V.d.1.f.f.f.d.V.3.8.E.%.v v v < 4 ; 7                                   ",
"                                      0 y w 9 . +.O.v v v v v O.O.v v O.v v v O.< & o > $                                       ",
"                                            = y r z 9 * . < +.+.+., % < * - 8 3 > O                                             ",
"                                              # # # = t y j r r r r 6 > + 7 #                                                   "
};
